# xmcd
#
# Track frame offsets:
# 150
# 97773
# 156478
# 231534
# 303683
#
# Disc length: 4720 seconds
#
#
# Revision: 0
# Processed by: cddbd v1.5.2PL0 Copyright (c) Steve Scherf et al.
# Submitted via: FreeRIP 2.96 
#
DISCID=3c126e05
DTITLE=Terry Pratchett - Der Winterschmied CD3v5
DYEAR=2007
DGENRE=Hörbuch
TTITLE0=11 Der Winterschmied
TTITLE1=12 Der Winterschmied
TTITLE2=13 Der Winterschmied
TTITLE3=14 Der Winterschmied
TTITLE4=15 Der Winterschmied
EXTD=gelesen von Boris Aljinovic
EXTT0=
EXTT1=
EXTT2=
EXTT3=
EXTT4=
PLAYORDER=
